{"metadata": {"schema_version": "0.2", "title": "Diamond is Unbreakable", "source_filename": "Diamond_is_Unbreakable.mscz", "source_format": "musescore"}, "resolution": 480, "tempos": [{"time": 0, "qpm": 130.0}], "key_signatures": [{"time": 0, "fifths": -4}], "time_signatures": [{"time": 0, "numerator": 4, "denominator": 4}], "barlines": [{"time": 0}, {"time": 1920}, {"time": 3840}, {"time": 5760}, {"time": 7680}, {"time": 9600}, {"time": 11520}, {"time": 13440}, {"time": 15360}, {"time": 17280}, {"time": 19200}, {"time": 21120}, {"time": 23040}, {"time": 24960}, {"time": 26880}, {"time": 28800}, {"time": 30720}, {"time": 32640}], "beats": [{"time": 0}, {"time": 480}, {"time": 960}, {"time": 1440}, {"time": 1920}, {"time": 2400}, {"time": 2880}, {"time": 3360}, {"time": 3840}, {"time": 4320}, {"time": 4800}, {"time": 5280}, {"time": 5760}, {"time": 6240}, {"time": 6720}, {"time": 7200}, {"time": 7680}, {"time": 8160}, {"time": 8640}, {"time": 9120}, {"time": 9600}, {"time": 10080}, {"time": 10560}, {"time": 11040}, {"time": 11520}, {"time": 12000}, {"time": 12480}, {"time": 12960}, {"time": 13440}, {"time": 13920}, {"time": 14400}, {"time": 14880}, {"time": 15360}, {"time": 15840}, {"time": 16320}, {"time": 16800}, {"time": 17280}, {"time": 17760}, {"time": 18240}, {"time": 18720}, {"time": 19200}, {"time": 19680}, {"time": 20160}, {"time": 20640}, {"time": 21120}, {"time": 21600}, {"time": 22080}, {"time": 22560}, {"time": 23040}, {"time": 23520}, {"time": 24000}, {"time": 24480}, {"time": 24960}, {"time": 25440}, {"time": 25920}, {"time": 26400}, {"time": 26880}, {"time": 27360}, {"time": 27840}, {"time": 28320}, {"time": 28800}, {"time": 29280}, {"time": 29760}, {"time": 30240}, {"time": 30720}, {"time": 31200}, {"time": 31680}, {"time": 32160}, {"time": 32640}, {"time": 33120}, {"time": 33600}, {"time": 34080}], "tracks": [{"program": 65, "is_drum": false, "name": "Alto Sax 1", "notes": [{"time": 0, "pitch": 65, "duration": 480, "velocity": 96, "pitch_str": "F"}, {"time": 480, "pitch": 67, "duration": 480, "velocity": 96, "pitch_str": "G"}, {"time": 960, "pitch": 68, "duration": 360, "velocity": 96, "pitch_str": "Ab"}, {"time": 1320, "pitch": 72, "duration": 360, "velocity": 96, "pitch_str": "C"}, {"time": 1680, "pitch": 68, "duration": 240, "velocity": 96, "pitch_str": "Ab"}, {"time": 1920, "pitch": 71, "duration": 360, "velocity": 96, "pitch_str": "B"}, {"time": 2280, "pitch": 70, "duration": 360, "velocity": 96, "pitch_str": "Bb"}, {"time": 2640, "pitch": 68, "duration": 720, "velocity": 96, "pitch_str": "Ab"}, {"time": 3360, "pitch": 63, "duration": 480, "velocity": 96, "pitch_str": "Eb"}, {"time": 3840, "pitch": 63, "duration": 120, "velocity": 96, "pitch_str": "Eb"}, {"time": 3960, "pitch": 64, "duration": 240, "velocity": 96, "pitch_str": "E"}, {"time": 4200, "pitch": 65, "duration": 1560, "velocity": 96, "pitch_str": "F"}, {"time": 5760, "pitch": 75, "duration": 120, "velocity": 96, "pitch_str": "Eb"}, {"time": 5880, "pitch": 76, "duration": 240, "velocity": 96, "pitch_str": "E"}, {"time": 6120, "pitch": 77, "duration": 1560, "velocity": 96, "pitch_str": "F"}, {"time": 7680, "pitch": 65, "duration": 480, "velocity": 96, "pitch_str": "F"}, {"time": 8160, "pitch": 67, "duration": 240, "velocity": 96, "pitch_str": "G"}, {"time": 8400, "pitch": 67, "duration": 240, "velocity": 96, "pitch_str": "G"}, {"time": 8640, "pitch": 68, "duration": 360, "velocity": 96, "pitch_str": "Ab"}, {"time": 9000, "pitch": 72, "duration": 360, "velocity": 96, "pitch_str": "C"}, {"time": 9360, "pitch": 68, "duration": 240, "velocity": 96, "pitch_str": "Ab"}, {"time": 9600, "pitch": 71, "duration": 360, "velocity": 96, "pitch_str": "B"}, {"time": 9960, "pitch": 70, "duration": 360, "velocity": 96, "pitch_str": "Bb"}, {"time": 10320, "pitch": 68, "duration": 720, "velocity": 96, "pitch_str": "Ab"}, {"time": 11040, "pitch": 72, "duration": 160, "velocity": 96, "pitch_str": "C"}, {"time": 11200, "pitch": 75, "duration": 160, "velocity": 96, "pitch_str": "Eb"}, {"time": 11360, "pitch": 76, "duration": 160, "velocity": 96, "pitch_str": "E"}, {"time": 11520, "pitch": 77, "duration": 720, "velocity": 96, "pitch_str": "F"}, {"time": 24960, "pitch": 65, "duration": 480, "velocity": 96, "pitch_str": "F"}, {"time": 25440, "pitch": 67, "duration": 240, "velocity": 96, "pitch_str": "G"}, {"time": 25680, "pitch": 67, "duration": 240, "velocity": 96, "pitch_str": "G"}, {"time": 25920, "pitch": 68, "duration": 360, "velocity": 96, "pitch_str": "Ab"}, {"time": 26280, "pitch": 72, "duration": 360, "velocity": 96, "pitch_str": "C"}, {"time": 26640, "pitch": 68, "duration": 240, "velocity": 96, "pitch_str": "Ab"}, {"time": 26880, "pitch": 71, "duration": 360, "velocity": 96, "pitch_str": "B"}, {"time": 27240, "pitch": 70, "duration": 360, "velocity": 96, "pitch_str": "Bb"}, {"time": 27600, "pitch": 68, "duration": 720, "velocity": 96, "pitch_str": "Ab"}, {"time": 28320, "pitch": 72, "duration": 160, "velocity": 96, "pitch_str": "C"}, {"time": 28480, "pitch": 75, "duration": 160, "velocity": 96, "pitch_str": "Eb"}, {"time": 28640, "pitch": 76, "duration": 160, "velocity": 96, "pitch_str": "E"}, {"time": 29760, "pitch": 65, "duration": 120, "velocity": 112, "pitch_str": "F"}, {"time": 29880, "pitch": 64, "duration": 120, "velocity": 112, "pitch_str": "E"}, {"time": 30000, "pitch": 63, "duration": 120, "velocity": 112, "pitch_str": "Eb"}, {"time": 30120, "pitch": 60, "duration": 120, "velocity": 112, "pitch_str": "C"}, {"time": 30240, "pitch": 59, "duration": 120, "velocity": 112, "pitch_str": "B"}, {"time": 30360, "pitch": 58, "duration": 120, "velocity": 112, "pitch_str": "Bb"}, {"time": 30480, "pitch": 56, "duration": 120, "velocity": 112, "pitch_str": "Ab"}, {"time": 30600, "pitch": 53, "duration": 120, "velocity": 112, "pitch_str": "F"}, {"time": 30720, "pitch": 55, "duration": 120, "velocity": 112, "pitch_str": "G"}, {"time": 30840, "pitch": 56, "duration": 120, "velocity": 112, "pitch_str": "Ab"}, {"time": 30960, "pitch": 58, "duration": 120, "velocity": 112, "pitch_str": "Bb"}, {"time": 31080, "pitch": 59, "duration": 120, "velocity": 112, "pitch_str": "B"}, {"time": 31200, "pitch": 60, "duration": 120, "velocity": 112, "pitch_str": "C"}, {"time": 31320, "pitch": 58, "duration": 120, "velocity": 112, "pitch_str": "Bb"}, {"time": 31440, "pitch": 56, "duration": 120, "velocity": 112, "pitch_str": "Ab"}, {"time": 31560, "pitch": 55, "duration": 120, "velocity": 112, "pitch_str": "G"}, {"time": 31680, "pitch": 53, "duration": 120, "velocity": 112, "pitch_str": "F"}, {"time": 31800, "pitch": 56, "duration": 120, "velocity": 112, "pitch_str": "Ab"}, {"time": 31920, "pitch": 58, "duration": 120, "velocity": 112, "pitch_str": "Bb"}, {"time": 32040, "pitch": 60, "duration": 120, "velocity": 112, "pitch_str": "C"}, {"time": 32160, "pitch": 61, "duration": 120, "velocity": 112, "pitch_str": "Db"}, {"time": 32280, "pitch": 62, "duration": 120, "velocity": 112, "pitch_str": "D"}, {"time": 32400, "pitch": 63, "duration": 120, "velocity": 112, "pitch_str": "Eb"}, {"time": 32520, "pitch": 64, "duration": 120, "velocity": 112, "pitch_str": "E"}, {"time": 32640, "pitch": 65, "duration": 480, "velocity": 112, "pitch_str": "F"}]}, {"program": 65, "is_drum": false, "name": "Alto Sax 2", "notes": [{"time": 0, "pitch": 60, "duration": 480, "velocity": 80, "pitch_str": "C"}, {"time": 480, "pitch": 64, "duration": 480, "velocity": 80, "pitch_str": "E"}, {"time": 960, "pitch": 63, "duration": 360, "velocity": 80, "pitch_str": "Eb"}, {"time": 1320, "pitch": 65, "duration": 600, "velocity": 80, "pitch_str": "F"}, {"time": 1920, "pitch": 65, "duration": 720, "velocity": 80, "pitch_str": "F"}, {"time": 2640, "pitch": 64, "duration": 720, "velocity": 80, "pitch_str": "E"}, {"time": 3360, "pitch": 60, "duration": 480, "velocity": 80, "pitch_str": "C"}, {"time": 3840, "pitch": 60, "duration": 360, "velocity": 80, "pitch_str": "C"}, {"time": 4200, "pitch": 60, "duration": 1560, "velocity": 80, "pitch_str": "C"}, {"time": 5760, "pitch": 72, "duration": 360, "velocity": 80, "pitch_str": "C"}, {"time": 6120, "pitch": 72, "duration": 1560, "velocity": 80, "pitch_str": "C"}, {"time": 7680, "pitch": 60, "duration": 480, "velocity": 80, "pitch_str": "C"}, {"time": 8160, "pitch": 64, "duration": 240, "velocity": 80, "pitch_str": "E"}, {"time": 8400, "pitch": 64, "duration": 240, "velocity": 80, "pitch_str": "E"}, {"time": 8640, "pitch": 63, "duration": 360, "velocity": 80, "pitch_str": "Eb"}, {"time": 9000, "pitch": 65, "duration": 600, "velocity": 80, "pitch_str": "F"}, {"time": 9600, "pitch": 65, "duration": 720, "velocity": 80, "pitch_str": "F"}, {"time": 10320, "pitch": 64, "duration": 720, "velocity": 80, "pitch_str": "E"}, {"time": 11040, "pitch": 68, "duration": 160, "velocity": 80, "pitch_str": "Ab"}, {"time": 11200, "pitch": 72, "duration": 160, "velocity": 80, "pitch_str": "C"}, {"time": 11360, "pitch": 72, "duration": 160, "velocity": 80, "pitch_str": "C"}, {"time": 11520, "pitch": 72, "duration": 720, "velocity": 80, "pitch_str": "C"}, {"time": 24960, "pitch": 60, "duration": 480, "velocity": 80, "pitch_str": "C"}, {"time": 25440, "pitch": 64, "duration": 240, "velocity": 80, "pitch_str": "E"}, {"time": 25680, "pitch": 64, "duration": 240, "velocity": 80, "pitch_str": "E"}, {"time": 25920, "pitch": 63, "duration": 360, "velocity": 80, "pitch_str": "Eb"}, {"time": 26280, "pitch": 65, "duration": 600, "velocity": 80, "pitch_str": "F"}, {"time": 26880, "pitch": 65, "duration": 720, "velocity": 80, "pitch_str": "F"}, {"time": 27600, "pitch": 64, "duration": 720, "velocity": 80, "pitch_str": "E"}, {"time": 28320, "pitch": 68, "duration": 160, "velocity": 80, "pitch_str": "Ab"}, {"time": 28480, "pitch": 72, "duration": 160, "velocity": 80, "pitch_str": "C"}, {"time": 28640, "pitch": 72, "duration": 160, "velocity": 80, "pitch_str": "C"}, {"time": 28800, "pitch": 65, "duration": 960, "velocity": 80, "pitch_str": "F"}, {"time": 32640, "pitch": 60, "duration": 480, "velocity": 80, "pitch_str": "C"}]}, {"program": 66, "is_drum": false, "name": "Tenor Sax 1", "notes": [{"time": 0, "pitch": 56, "duration": 480, "velocity": 80, "pitch_str": "Ab"}, {"time": 480, "pitch": 60, "duration": 480, "velocity": 80, "pitch_str": "C"}, {"time": 960, "pitch": 60, "duration": 360, "velocity": 80, "pitch_str": "C"}, {"time": 1320, "pitch": 62, "duration": 600, "velocity": 80, "pitch_str": "D"}, {"time": 1920, "pitch": 61, "duration": 720, "velocity": 80, "pitch_str": "Db"}, {"time": 2640, "pitch": 60, "duration": 720, "velocity": 80, "pitch_str": "C"}, {"time": 3360, "pitch": 56, "duration": 480, "velocity": 80, "pitch_str": "Ab"}, {"time": 3840, "pitch": 56, "duration": 1920, "velocity": 80, "pitch_str": "Ab"}, {"time": 5760, "pitch": 68, "duration": 360, "velocity": 80, "pitch_str": "Ab"}, {"time": 6120, "pitch": 68, "duration": 1560, "velocity": 80, "pitch_str": "Ab"}, {"time": 7680, "pitch": 56, "duration": 480, "velocity": 80, "pitch_str": "Ab"}, {"time": 8160, "pitch": 60, "duration": 240, "velocity": 80, "pitch_str": "C"}, {"time": 8400, "pitch": 60, "duration": 240, "velocity": 80, "pitch_str": "C"}, {"time": 8640, "pitch": 60, "duration": 360, "velocity": 80, "pitch_str": "C"}, {"time": 9000, "pitch": 62, "duration": 600, "velocity": 80, "pitch_str": "D"}, {"time": 9600, "pitch": 61, "duration": 720, "velocity": 80, "pitch_str": "Db"}, {"time": 10320, "pitch": 60, "duration": 720, "velocity": 80, "pitch_str": "C"}, {"time": 11040, "pitch": 56, "duration": 160, "velocity": 80, "pitch_str": "Ab"}, {"time": 11520, "pitch": 56, "duration": 720, "velocity": 80, "pitch_str": "Ab"}, {"time": 24960, "pitch": 56, "duration": 480, "velocity": 80, "pitch_str": "Ab"}, {"time": 25440, "pitch": 60, "duration": 240, "velocity": 80, "pitch_str": "C"}, {"time": 25680, "pitch": 60, "duration": 240, "velocity": 80, "pitch_str": "C"}, {"time": 25920, "pitch": 60, "duration": 360, "velocity": 80, "pitch_str": "C"}, {"time": 26280, "pitch": 62, "duration": 600, "velocity": 80, "pitch_str": "D"}, {"time": 26880, "pitch": 61, "duration": 720, "velocity": 80, "pitch_str": "Db"}, {"time": 27600, "pitch": 60, "duration": 720, "velocity": 80, "pitch_str": "C"}, {"time": 28320, "pitch": 56, "duration": 160, "velocity": 80, "pitch_str": "Ab"}, {"time": 28800, "pitch": 60, "duration": 960, "velocity": 80, "pitch_str": "C"}, {"time": 32640, "pitch": 56, "duration": 480, "velocity": 80, "pitch_str": "Ab"}]}, {"program": 66, "is_drum": false, "name": "Tenor Sax 2", "notes": [{"time": 0, "pitch": 53, "duration": 480, "velocity": 80, "pitch_str": "F"}, {"time": 480, "pitch": 55, "duration": 480, "velocity": 80, "pitch_str": "G"}, {"time": 960, "pitch": 56, "duration": 360, "velocity": 80, "pitch_str": "Ab"}, {"time": 1320, "pitch": 60, "duration": 360, "velocity": 80, "pitch_str": "C"}, {"time": 1680, "pitch": 56, "duration": 240, "velocity": 80, "pitch_str": "Ab"}, {"time": 1920, "pitch": 59, "duration": 360, "velocity": 80, "pitch_str": "B"}, {"time": 2280, "pitch": 58, "duration": 360, "velocity": 80, "pitch_str": "Bb"}, {"time": 2640, "pitch": 56, "duration": 720, "velocity": 80, "pitch_str": "Ab"}, {"time": 3360, "pitch": 51, "duration": 480, "velocity": 80, "pitch_str": "Eb"}, {"time": 3840, "pitch": 51, "duration": 120, "velocity": 80, "pitch_str": "Eb"}, {"time": 3960, "pitch": 52, "duration": 240, "velocity": 80, "pitch_str": "E"}, {"time": 4200, "pitch": 53, "duration": 1560, "velocity": 80, "pitch_str": "F"}, {"time": 5760, "pitch": 63, "duration": 120, "velocity": 80, "pitch_str": "Eb"}, {"time": 5880, "pitch": 64, "duration": 240, "velocity": 80, "pitch_str": "E"}, {"time": 6120, "pitch": 65, "duration": 1560, "velocity": 80, "pitch_str": "F"}, {"time": 7680, "pitch": 53, "duration": 480, "velocity": 80, "pitch_str": "F"}, {"time": 8160, "pitch": 55, "duration": 240, "velocity": 80, "pitch_str": "G"}, {"time": 8400, "pitch": 55, "duration": 240, "velocity": 80, "pitch_str": "G"}, {"time": 8640, "pitch": 56, "duration": 360, "velocity": 80, "pitch_str": "Ab"}, {"time": 9000, "pitch": 60, "duration": 360, "velocity": 80, "pitch_str": "C"}, {"time": 9360, "pitch": 56, "duration": 240, "velocity": 80, "pitch_str": "Ab"}, {"time": 9600, "pitch": 59, "duration": 360, "velocity": 80, "pitch_str": "B"}, {"time": 9960, "pitch": 58, "duration": 360, "velocity": 80, "pitch_str": "Bb"}, {"time": 10320, "pitch": 56, "duration": 720, "velocity": 80, "pitch_str": "Ab"}, {"time": 11040, "pitch": 60, "duration": 160, "velocity": 80, "pitch_str": "C"}, {"time": 11200, "pitch": 63, "duration": 160, "velocity": 80, "pitch_str": "Eb"}, {"time": 11360, "pitch": 64, "duration": 160, "velocity": 80, "pitch_str": "E"}, {"time": 11520, "pitch": 65, "duration": 720, "velocity": 80, "pitch_str": "F"}, {"time": 24960, "pitch": 53, "duration": 480, "velocity": 80, "pitch_str": "F"}, {"time": 25440, "pitch": 55, "duration": 240, "velocity": 80, "pitch_str": "G"}, {"time": 25680, "pitch": 55, "duration": 240, "velocity": 80, "pitch_str": "G"}, {"time": 25920, "pitch": 56, "duration": 360, "velocity": 80, "pitch_str": "Ab"}, {"time": 26280, "pitch": 60, "duration": 360, "velocity": 80, "pitch_str": "C"}, {"time": 26640, "pitch": 56, "duration": 240, "velocity": 80, "pitch_str": "Ab"}, {"time": 26880, "pitch": 59, "duration": 360, "velocity": 80, "pitch_str": "B"}, {"time": 27240, "pitch": 58, "duration": 360, "velocity": 80, "pitch_str": "Bb"}, {"time": 27600, "pitch": 56, "duration": 720, "velocity": 80, "pitch_str": "Ab"}, {"time": 28320, "pitch": 60, "duration": 160, "velocity": 80, "pitch_str": "C"}, {"time": 28480, "pitch": 63, "duration": 160, "velocity": 80, "pitch_str": "Eb"}, {"time": 28640, "pitch": 64, "duration": 160, "velocity": 80, "pitch_str": "E"}, {"time": 28800, "pitch": 56, "duration": 960, "velocity": 80, "pitch_str": "Ab"}]}, {"program": 67, "is_drum": false, "name": "Bari Sax", "notes": [{"time": 0, "pitch": 53, "duration": 480, "velocity": 96, "pitch_str": "F"}, {"time": 480, "pitch": 52, "duration": 480, "velocity": 96, "pitch_str": "E"}, {"time": 960, "pitch": 51, "duration": 360, "velocity": 96, "pitch_str": "Eb"}, {"time": 1320, "pitch": 50, "duration": 360, "velocity": 96, "pitch_str": "D"}, {"time": 1680, "pitch": 50, "duration": 240, "velocity": 96, "pitch_str": "D"}, {"time": 1920, "pitch": 49, "duration": 720, "velocity": 96, "pitch_str": "Db"}, {"time": 2640, "pitch": 49, "duration": 240, "velocity": 96, "pitch_str": "Db"}, {"time": 2880, "pitch": 48, "duration": 480, "velocity": 96, "pitch_str": "C"}, {"time": 3360, "pitch": 48, "duration": 240, "velocity": 96, "pitch_str": "C"}, {"time": 3600, "pitch": 51, "duration": 240, "velocity": 96, "pitch_str": "Eb"}, {"time": 3840, "pitch": 53, "duration": 240, "velocity": 96, "pitch_str": "F"}, {"time": 4080, "pitch": 53, "duration": 120, "velocity": 96, "pitch_str": "F"}, {"time": 4200, "pitch": 52, "duration": 240, "velocity": 96, "pitch_str": "E"}, {"time": 4440, "pitch": 52, "duration": 120, "velocity": 96, "pitch_str": "E"}, {"time": 4560, "pitch": 51, "duration": 240, "velocity": 96, "pitch_str": "Eb"}, {"time": 4800, "pitch": 51, "duration": 120, "velocity": 96, "pitch_str": "Eb"}, {"time": 4920, "pitch": 50, "duration": 240, "velocity": 96, "pitch_str": "D"}, {"time": 5160, "pitch": 50, "duration": 120, "velocity": 96, "pitch_str": "D"}, {"time": 5280, "pitch": 44, "duration": 240, "velocity": 96, "pitch_str": "Ab"}, {"time": 5520, "pitch": 44, "duration": 240, "velocity": 96, "pitch_str": "Ab"}, {"time": 5760, "pitch": 53, "duration": 240, "velocity": 96, "pitch_str": "F"}, {"time": 6000, "pitch": 53, "duration": 120, "velocity": 96, "pitch_str": "F"}, {"time": 6120, "pitch": 52, "duration": 240, "velocity": 96, "pitch_str": "E"}, {"time": 6360, "pitch": 52, "duration": 120, "velocity": 96, "pitch_str": "E"}, {"time": 6480, "pitch": 51, "duration": 240, "velocity": 96, "pitch_str": "Eb"}, {"time": 6720, "pitch": 51, "duration": 120, "velocity": 96, "pitch_str": "Eb"}, {"time": 6840, "pitch": 50, "duration": 240, "velocity": 96, "pitch_str": "D"}, {"time": 7080, "pitch": 50, "duration": 120, "velocity": 96, "pitch_str": "D"}, {"time": 7200, "pitch": 44, "duration": 240, "velocity": 96, "pitch_str": "Ab"}, {"time": 7440, "pitch": 44, "duration": 240, "velocity": 96, "pitch_str": "Ab"}, {"time": 7680, "pitch": 53, "duration": 480, "velocity": 96, "pitch_str": "F"}, {"time": 8160, "pitch": 52, "duration": 480, "velocity": 96, "pitch_str": "E"}, {"time": 8640, "pitch": 51, "duration": 360, "velocity": 96, "pitch_str": "Eb"}, {"time": 9000, "pitch": 50, "duration": 360, "velocity": 96, "pitch_str": "D"}, {"time": 9360, "pitch": 50, "duration": 240, "velocity": 96, "pitch_str": "D"}, {"time": 9600, "pitch": 49, "duration": 720, "velocity": 96, "pitch_str": "Db"}, {"time": 10320, "pitch": 49, "duration": 240, "velocity": 96, "pitch_str": "Db"}, {"time": 10560, "pitch": 48, "duration": 480, "velocity": 96, "pitch_str": "C"}, {"time": 11040, "pitch": 48, "duration": 240, "velocity": 96, "pitch_str": "C"}, {"time": 11280, "pitch": 51, "duration": 240, "velocity": 96, "pitch_str": "Eb"}, {"time": 11520, "pitch": 53, "duration": 360, "velocity": 96, "pitch_str": "F"}, {"time": 11880, "pitch": 59, "duration": 240, "velocity": 96, "pitch_str": "B"}, {"time": 12120, "pitch": 58, "duration": 120, "velocity": 96, "pitch_str": "Bb"}, {"time": 12240, "pitch": 56, "duration": 240, "velocity": 96, "pitch_str": "Ab"}, {"time": 12480, "pitch": 53, "duration": 360, "velocity": 96, "pitch_str": "F"}, {"time": 12840, "pitch": 59, "duration": 240, "velocity": 96, "pitch_str": "B"}, {"time": 13080, "pitch": 58, "duration": 120, "velocity": 96, "pitch_str": "Bb"}, {"time": 13200, "pitch": 56, "duration": 240, "velocity": 96, "pitch_str": "Ab"}, {"time": 24960, "pitch": 53, "duration": 480, "velocity": 96, "pitch_str": "F"}, {"time": 25440, "pitch": 52, "duration": 480, "velocity": 96, "pitch_str": "E"}, {"time": 25920, "pitch": 51, "duration": 360, "velocity": 96, "pitch_str": "Eb"}, {"time": 26280, "pitch": 50, "duration": 360, "velocity": 96, "pitch_str": "D"}, {"time": 26640, "pitch": 50, "duration": 240, "velocity": 96, "pitch_str": "D"}, {"time": 26880, "pitch": 49, "duration": 720, "velocity": 96, "pitch_str": "Db"}, {"time": 27600, "pitch": 49, "duration": 240, "velocity": 96, "pitch_str": "Db"}, {"time": 27840, "pitch": 48, "duration": 480, "velocity": 96, "pitch_str": "C"}, {"time": 28320, "pitch": 48, "duration": 240, "velocity": 96, "pitch_str": "C"}, {"time": 28560, "pitch": 51, "duration": 240, "velocity": 96, "pitch_str": "Eb"}, {"time": 28800, "pitch": 53, "duration": 960, "velocity": 96, "pitch_str": "F"}]}, {"program": 56, "is_drum": false, "name": "Trumpet 1", "notes": [{"time": 0, "pitch": 65, "duration": 480, "velocity": 80, "pitch_str": "F"}, {"time": 480, "pitch": 67, "duration": 480, "velocity": 80, "pitch_str": "G"}, {"time": 960, "pitch": 68, "duration": 360, "velocity": 80, "pitch_str": "Ab"}, {"time": 1320, "pitch": 72, "duration": 360, "velocity": 80, "pitch_str": "C"}, {"time": 1680, "pitch": 68, "duration": 240, "velocity": 80, "pitch_str": "Ab"}, {"time": 1920, "pitch": 71, "duration": 360, "velocity": 80, "pitch_str": "B"}, {"time": 2280, "pitch": 70, "duration": 360, "velocity": 80, "pitch_str": "Bb"}, {"time": 2640, "pitch": 68, "duration": 720, "velocity": 80, "pitch_str": "Ab"}, {"time": 3360, "pitch": 63, "duration": 480, "velocity": 80, "pitch_str": "Eb"}, {"time": 3840, "pitch": 63, "duration": 120, "velocity": 80, "pitch_str": "Eb"}, {"time": 3960, "pitch": 64, "duration": 240, "velocity": 80, "pitch_str": "E"}, {"time": 4200, "pitch": 65, "duration": 1560, "velocity": 80, "pitch_str": "F"}, {"time": 5760, "pitch": 75, "duration": 120, "velocity": 80, "pitch_str": "Eb"}, {"time": 5880, "pitch": 76, "duration": 240, "velocity": 80, "pitch_str": "E"}, {"time": 6120, "pitch": 77, "duration": 1560, "velocity": 80, "pitch_str": "F"}, {"time": 7680, "pitch": 65, "duration": 480, "velocity": 80, "pitch_str": "F"}, {"time": 8160, "pitch": 67, "duration": 240, "velocity": 80, "pitch_str": "G"}, {"time": 8400, "pitch": 67, "duration": 240, "velocity": 80, "pitch_str": "G"}, {"time": 8640, "pitch": 68, "duration": 360, "velocity": 80, "pitch_str": "Ab"}, {"time": 9000, "pitch": 72, "duration": 360, "velocity": 80, "pitch_str": "C"}, {"time": 9360, "pitch": 68, "duration": 240, "velocity": 80, "pitch_str": "Ab"}, {"time": 9600, "pitch": 71, "duration": 360, "velocity": 80, "pitch_str": "B"}, {"time": 9960, "pitch": 70, "duration": 360, "velocity": 80, "pitch_str": "Bb"}, {"time": 10320, "pitch": 68, "duration": 720, "velocity": 80, "pitch_str": "Ab"}, {"time": 11040, "pitch": 72, "duration": 160, "velocity": 80, "pitch_str": "C"}, {"time": 11200, "pitch": 75, "duration": 160, "velocity": 80, "pitch_str": "Eb"}, {"time": 11360, "pitch": 76, "duration": 160, "velocity": 80, "pitch_str": "E"}, {"time": 11520, "pitch": 77, "duration": 720, "velocity": 80, "pitch_str": "F"}, {"time": 24960, "pitch": 65, "duration": 480, "velocity": 80, "pitch_str": "F"}, {"time": 25440, "pitch": 67, "duration": 240, "velocity": 80, "pitch_str": "G"}, {"time": 25680, "pitch": 67, "duration": 240, "velocity": 80, "pitch_str": "G"}, {"time": 25920, "pitch": 68, "duration": 360, "velocity": 80, "pitch_str": "Ab"}, {"time": 26280, "pitch": 72, "duration": 360, "velocity": 80, "pitch_str": "C"}, {"time": 26640, "pitch": 68, "duration": 240, "velocity": 80, "pitch_str": "Ab"}, {"time": 26880, "pitch": 71, "duration": 360, "velocity": 80, "pitch_str": "B"}, {"time": 27240, "pitch": 70, "duration": 360, "velocity": 80, "pitch_str": "Bb"}, {"time": 27600, "pitch": 68, "duration": 720, "velocity": 80, "pitch_str": "Ab"}, {"time": 28320, "pitch": 72, "duration": 160, "velocity": 80, "pitch_str": "C"}, {"time": 28480, "pitch": 75, "duration": 160, "velocity": 80, "pitch_str": "Eb"}, {"time": 28640, "pitch": 76, "duration": 160, "velocity": 80, "pitch_str": "E"}]}, {"program": 56, "is_drum": false, "name": "Trumpet 2", "notes": [{"time": 0, "pitch": 60, "duration": 480, "velocity": 80, "pitch_str": "C"}, {"time": 480, "pitch": 64, "duration": 480, "velocity": 80, "pitch_str": "E"}, {"time": 960, "pitch": 63, "duration": 360, "velocity": 80, "pitch_str": "Eb"}, {"time": 1320, "pitch": 65, "duration": 600, "velocity": 80, "pitch_str": "F"}, {"time": 1920, "pitch": 65, "duration": 720, "velocity": 80, "pitch_str": "F"}, {"time": 2640, "pitch": 64, "duration": 720, "velocity": 80, "pitch_str": "E"}, {"time": 3360, "pitch": 60, "duration": 480, "velocity": 80, "pitch_str": "C"}, {"time": 3840, "pitch": 60, "duration": 1920, "velocity": 80, "pitch_str": "C"}, {"time": 5760, "pitch": 72, "duration": 1920, "velocity": 80, "pitch_str": "C"}, {"time": 7680, "pitch": 60, "duration": 480, "velocity": 80, "pitch_str": "C"}, {"time": 8160, "pitch": 64, "duration": 240, "velocity": 80, "pitch_str": "E"}, {"time": 8400, "pitch": 64, "duration": 240, "velocity": 80, "pitch_str": "E"}, {"time": 8640, "pitch": 63, "duration": 360, "velocity": 80, "pitch_str": "Eb"}, {"time": 9000, "pitch": 65, "duration": 600, "velocity": 80, "pitch_str": "F"}, {"time": 9600, "pitch": 65, "duration": 720, "velocity": 80, "pitch_str": "F"}, {"time": 10320, "pitch": 64, "duration": 720, "velocity": 80, "pitch_str": "E"}, {"time": 11040, "pitch": 68, "duration": 160, "velocity": 80, "pitch_str": "Ab"}, {"time": 11200, "pitch": 72, "duration": 160, "velocity": 80, "pitch_str": "C"}, {"time": 11360, "pitch": 72, "duration": 160, "velocity": 80, "pitch_str": "C"}, {"time": 11520, "pitch": 72, "duration": 720, "velocity": 80, "pitch_str": "C"}, {"time": 24960, "pitch": 60, "duration": 480, "velocity": 80, "pitch_str": "C"}, {"time": 25440, "pitch": 64, "duration": 240, "velocity": 80, "pitch_str": "E"}, {"time": 25680, "pitch": 64, "duration": 240, "velocity": 80, "pitch_str": "E"}, {"time": 25920, "pitch": 63, "duration": 360, "velocity": 80, "pitch_str": "Eb"}, {"time": 26280, "pitch": 65, "duration": 600, "velocity": 80, "pitch_str": "F"}, {"time": 26880, "pitch": 65, "duration": 720, "velocity": 80, "pitch_str": "F"}, {"time": 27600, "pitch": 64, "duration": 720, "velocity": 80, "pitch_str": "E"}, {"time": 28320, "pitch": 68, "duration": 160, "velocity": 80, "pitch_str": "Ab"}, {"time": 28480, "pitch": 72, "duration": 160, "velocity": 80, "pitch_str": "C"}, {"time": 28640, "pitch": 72, "duration": 160, "velocity": 80, "pitch_str": "C"}]}, {"program": 56, "is_drum": true, "name": "Trumpet 3", "notes": [{"time": 0, "pitch": 56, "duration": 480, "velocity": 80, "pitch_str": "Ab"}, {"time": 480, "pitch": 60, "duration": 480, "velocity": 80, "pitch_str": "C"}, {"time": 960, "pitch": 60, "duration": 360, "velocity": 80, "pitch_str": "C"}, {"time": 1320, "pitch": 62, "duration": 600, "velocity": 80, "pitch_str": "D"}, {"time": 1920, "pitch": 61, "duration": 720, "velocity": 80, "pitch_str": "Db"}, {"time": 2640, "pitch": 60, "duration": 720, "velocity": 80, "pitch_str": "C"}, {"time": 3360, "pitch": 56, "duration": 480, "velocity": 80, "pitch_str": "Ab"}, {"time": 3840, "pitch": 56, "duration": 1920, "velocity": 80, "pitch_str": "Ab"}, {"time": 5760, "pitch": 68, "duration": 1920, "velocity": 80, "pitch_str": "Ab"}, {"time": 7680, "pitch": 56, "duration": 480, "velocity": 80, "pitch_str": "Ab"}, {"time": 8160, "pitch": 60, "duration": 240, "velocity": 80, "pitch_str": "C"}, {"time": 8400, "pitch": 60, "duration": 240, "velocity": 80, "pitch_str": "C"}, {"time": 8640, "pitch": 60, "duration": 360, "velocity": 80, "pitch_str": "C"}, {"time": 9000, "pitch": 62, "duration": 600, "velocity": 80, "pitch_str": "D"}, {"time": 9600, "pitch": 61, "duration": 720, "velocity": 80, "pitch_str": "Db"}, {"time": 10320, "pitch": 60, "duration": 720, "velocity": 80, "pitch_str": "C"}, {"time": 11040, "pitch": 56, "duration": 160, "velocity": 80, "pitch_str": "Ab"}, {"time": 11520, "pitch": 56, "duration": 720, "velocity": 80, "pitch_str": "Ab"}, {"time": 24960, "pitch": 56, "duration": 480, "velocity": 80, "pitch_str": "Ab"}, {"time": 25440, "pitch": 60, "duration": 240, "velocity": 80, "pitch_str": "C"}, {"time": 25680, "pitch": 60, "duration": 240, "velocity": 80, "pitch_str": "C"}, {"time": 25920, "pitch": 60, "duration": 360, "velocity": 80, "pitch_str": "C"}, {"time": 26280, "pitch": 62, "duration": 600, "velocity": 80, "pitch_str": "D"}, {"time": 26880, "pitch": 61, "duration": 720, "velocity": 80, "pitch_str": "Db"}, {"time": 27600, "pitch": 60, "duration": 720, "velocity": 80, "pitch_str": "C"}, {"time": 28320, "pitch": 56, "duration": 160, "velocity": 80, "pitch_str": "Ab"}]}, {"program": 57, "is_drum": false, "name": "Trombone 1", "notes": [{"time": 0, "pitch": 53, "duration": 480, "velocity": 96, "pitch_str": "F"}, {"time": 480, "pitch": 52, "duration": 480, "velocity": 96, "pitch_str": "E"}, {"time": 960, "pitch": 51, "duration": 360, "velocity": 96, "pitch_str": "Eb"}, {"time": 1320, "pitch": 50, "duration": 360, "velocity": 96, "pitch_str": "D"}, {"time": 1680, "pitch": 50, "duration": 240, "velocity": 96, "pitch_str": "D"}, {"time": 1920, "pitch": 49, "duration": 720, "velocity": 96, "pitch_str": "Db"}, {"time": 2640, "pitch": 49, "duration": 240, "velocity": 96, "pitch_str": "Db"}, {"time": 2880, "pitch": 48, "duration": 480, "velocity": 96, "pitch_str": "C"}, {"time": 3360, "pitch": 48, "duration": 240, "velocity": 96, "pitch_str": "C"}, {"time": 3600, "pitch": 51, "duration": 240, "velocity": 96, "pitch_str": "Eb"}, {"time": 3840, "pitch": 53, "duration": 240, "velocity": 96, "pitch_str": "F"}, {"time": 4080, "pitch": 53, "duration": 120, "velocity": 96, "pitch_str": "F"}, {"time": 4200, "pitch": 52, "duration": 240, "velocity": 96, "pitch_str": "E"}, {"time": 4440, "pitch": 52, "duration": 120, "velocity": 96, "pitch_str": "E"}, {"time": 4560, "pitch": 51, "duration": 240, "velocity": 96, "pitch_str": "Eb"}, {"time": 4800, "pitch": 51, "duration": 120, "velocity": 96, "pitch_str": "Eb"}, {"time": 4920, "pitch": 50, "duration": 240, "velocity": 96, "pitch_str": "D"}, {"time": 5160, "pitch": 50, "duration": 120, "velocity": 96, "pitch_str": "D"}, {"time": 5280, "pitch": 44, "duration": 240, "velocity": 96, "pitch_str": "Ab"}, {"time": 5520, "pitch": 44, "duration": 240, "velocity": 96, "pitch_str": "Ab"}, {"time": 5760, "pitch": 53, "duration": 240, "velocity": 96, "pitch_str": "F"}, {"time": 6000, "pitch": 53, "duration": 120, "velocity": 96, "pitch_str": "F"}, {"time": 6120, "pitch": 52, "duration": 240, "velocity": 96, "pitch_str": "E"}, {"time": 6360, "pitch": 52, "duration": 120, "velocity": 96, "pitch_str": "E"}, {"time": 6480, "pitch": 51, "duration": 240, "velocity": 96, "pitch_str": "Eb"}, {"time": 6720, "pitch": 51, "duration": 120, "velocity": 96, "pitch_str": "Eb"}, {"time": 6840, "pitch": 50, "duration": 240, "velocity": 96, "pitch_str": "D"}, {"time": 7080, "pitch": 50, "duration": 120, "velocity": 96, "pitch_str": "D"}, {"time": 7200, "pitch": 44, "duration": 240, "velocity": 96, "pitch_str": "Ab"}, {"time": 7440, "pitch": 44, "duration": 240, "velocity": 96, "pitch_str": "Ab"}, {"time": 7680, "pitch": 53, "duration": 480, "velocity": 96, "pitch_str": "F"}, {"time": 8160, "pitch": 52, "duration": 480, "velocity": 96, "pitch_str": "E"}, {"time": 8640, "pitch": 51, "duration": 360, "velocity": 96, "pitch_str": "Eb"}, {"time": 9000, "pitch": 50, "duration": 360, "velocity": 96, "pitch_str": "D"}, {"time": 9360, "pitch": 50, "duration": 240, "velocity": 96, "pitch_str": "D"}, {"time": 9600, "pitch": 49, "duration": 720, "velocity": 96, "pitch_str": "Db"}, {"time": 10320, "pitch": 49, "duration": 240, "velocity": 96, "pitch_str": "Db"}, {"time": 10560, "pitch": 48, "duration": 480, "velocity": 96, "pitch_str": "C"}, {"time": 11040, "pitch": 48, "duration": 240, "velocity": 96, "pitch_str": "C"}, {"time": 11280, "pitch": 51, "duration": 240, "velocity": 96, "pitch_str": "Eb"}, {"time": 11520, "pitch": 53, "duration": 360, "velocity": 96, "pitch_str": "F"}, {"time": 11880, "pitch": 59, "duration": 240, "velocity": 96, "pitch_str": "B"}, {"time": 12120, "pitch": 58, "duration": 120, "velocity": 96, "pitch_str": "Bb"}, {"time": 12240, "pitch": 56, "duration": 240, "velocity": 96, "pitch_str": "Ab"}, {"time": 12480, "pitch": 53, "duration": 360, "velocity": 96, "pitch_str": "F"}, {"time": 12840, "pitch": 59, "duration": 240, "velocity": 96, "pitch_str": "B"}, {"time": 13080, "pitch": 58, "duration": 120, "velocity": 96, "pitch_str": "Bb"}, {"time": 13200, "pitch": 56, "duration": 240, "velocity": 96, "pitch_str": "Ab"}, {"time": 13440, "pitch": 53, "duration": 240, "velocity": 96, "pitch_str": "F"}, {"time": 13680, "pitch": 53, "duration": 120, "velocity": 96, "pitch_str": "F"}, {"time": 13800, "pitch": 52, "duration": 240, "velocity": 96, "pitch_str": "E"}, {"time": 14040, "pitch": 52, "duration": 120, "velocity": 96, "pitch_str": "E"}, {"time": 14160, "pitch": 51, "duration": 240, "velocity": 96, "pitch_str": "Eb"}, {"time": 14400, "pitch": 51, "duration": 120, "velocity": 96, "pitch_str": "Eb"}, {"time": 14520, "pitch": 50, "duration": 240, "velocity": 96, "pitch_str": "D"}, {"time": 14760, "pitch": 50, "duration": 120, "velocity": 96, "pitch_str": "D"}, {"time": 14880, "pitch": 44, "duration": 240, "velocity": 96, "pitch_str": "Ab"}, {"time": 15120, "pitch": 44, "duration": 240, "velocity": 96, "pitch_str": "Ab"}, {"time": 15360, "pitch": 41, "duration": 480, "velocity": 96, "pitch_str": "F"}, {"time": 24960, "pitch": 53, "duration": 480, "velocity": 96, "pitch_str": "F"}, {"time": 25440, "pitch": 52, "duration": 480, "velocity": 96, "pitch_str": "E"}, {"time": 25920, "pitch": 51, "duration": 360, "velocity": 96, "pitch_str": "Eb"}, {"time": 26280, "pitch": 50, "duration": 360, "velocity": 96, "pitch_str": "D"}, {"time": 26640, "pitch": 50, "duration": 240, "velocity": 96, "pitch_str": "D"}, {"time": 26880, "pitch": 49, "duration": 720, "velocity": 96, "pitch_str": "Db"}, {"time": 27600, "pitch": 49, "duration": 240, "velocity": 96, "pitch_str": "Db"}, {"time": 27840, "pitch": 48, "duration": 480, "velocity": 96, "pitch_str": "C"}, {"time": 28320, "pitch": 48, "duration": 240, "velocity": 96, "pitch_str": "C"}, {"time": 28560, "pitch": 51, "duration": 240, "velocity": 96, "pitch_str": "Eb"}, {"time": 28800, "pitch": 60, "duration": 960, "velocity": 96, "pitch_str": "C"}, {"time": 29760, "pitch": 60, "duration": 480, "velocity": 96, "pitch_str": "C"}, {"time": 30240, "pitch": 60, "duration": 480, "velocity": 96, "pitch_str": "C"}, {"time": 30720, "pitch": 60, "duration": 360, "velocity": 96, "pitch_str": "C"}, {"time": 31080, "pitch": 60, "duration": 360, "velocity": 96, "pitch_str": "C"}, {"time": 31440, "pitch": 60, "duration": 1200, "velocity": 96, "pitch_str": "C"}, {"time": 32640, "pitch": 41, "duration": 480, "velocity": 96, "pitch_str": "F"}]}, {"program": 27, "is_drum": false, "name": "Guitar", "notes": [{"time": 0, "pitch": 53, "duration": 480, "velocity": 80, "pitch_str": "F"}, {"time": 480, "pitch": 55, "duration": 480, "velocity": 80, "pitch_str": "G"}, {"time": 960, "pitch": 56, "duration": 360, "velocity": 80, "pitch_str": "Ab"}, {"time": 1320, "pitch": 60, "duration": 360, "velocity": 80, "pitch_str": "C"}, {"time": 1680, "pitch": 56, "duration": 240, "velocity": 80, "pitch_str": "Ab"}, {"time": 1920, "pitch": 59, "duration": 360, "velocity": 80, "pitch_str": "B"}, {"time": 2280, "pitch": 58, "duration": 360, "velocity": 80, "pitch_str": "Bb"}, {"time": 2640, "pitch": 56, "duration": 720, "velocity": 80, "pitch_str": "Ab"}, {"time": 3360, "pitch": 51, "duration": 480, "velocity": 80, "pitch_str": "Eb"}, {"time": 3840, "pitch": 51, "duration": 120, "velocity": 80, "pitch_str": "Eb"}, {"time": 3960, "pitch": 52, "duration": 240, "velocity": 80, "pitch_str": "E"}, {"time": 4200, "pitch": 53, "duration": 1560, "velocity": 80, "pitch_str": "F"}, {"time": 5760, "pitch": 63, "duration": 120, "velocity": 80, "pitch_str": "Eb"}, {"time": 5880, "pitch": 64, "duration": 240, "velocity": 80, "pitch_str": "E"}, {"time": 6120, "pitch": 65, "duration": 1560, "velocity": 80, "pitch_str": "F"}, {"time": 7680, "pitch": 53, "duration": 480, "velocity": 80, "pitch_str": "F"}, {"time": 8160, "pitch": 55, "duration": 240, "velocity": 80, "pitch_str": "G"}, {"time": 8400, "pitch": 55, "duration": 240, "velocity": 80, "pitch_str": "G"}, {"time": 8640, "pitch": 56, "duration": 360, "velocity": 80, "pitch_str": "Ab"}, {"time": 9000, "pitch": 60, "duration": 360, "velocity": 80, "pitch_str": "C"}, {"time": 9360, "pitch": 56, "duration": 240, "velocity": 80, "pitch_str": "Ab"}, {"time": 9600, "pitch": 59, "duration": 360, "velocity": 80, "pitch_str": "B"}, {"time": 9960, "pitch": 58, "duration": 360, "velocity": 80, "pitch_str": "Bb"}, {"time": 10320, "pitch": 56, "duration": 720, "velocity": 80, "pitch_str": "Ab"}, {"time": 11040, "pitch": 60, "duration": 160, "velocity": 80, "pitch_str": "C"}, {"time": 11200, "pitch": 63, "duration": 160, "velocity": 80, "pitch_str": "Eb"}, {"time": 11360, "pitch": 64, "duration": 160, "velocity": 80, "pitch_str": "E"}, {"time": 11520, "pitch": 65, "duration": 720, "velocity": 80, "pitch_str": "F"}, {"time": 24960, "pitch": 53, "duration": 480, "velocity": 80, "pitch_str": "F"}, {"time": 25440, "pitch": 55, "duration": 240, "velocity": 80, "pitch_str": "G"}, {"time": 25680, "pitch": 55, "duration": 240, "velocity": 80, "pitch_str": "G"}, {"time": 25920, "pitch": 56, "duration": 360, "velocity": 80, "pitch_str": "Ab"}, {"time": 26280, "pitch": 60, "duration": 360, "velocity": 80, "pitch_str": "C"}, {"time": 26640, "pitch": 56, "duration": 240, "velocity": 80, "pitch_str": "Ab"}, {"time": 26880, "pitch": 59, "duration": 360, "velocity": 80, "pitch_str": "B"}, {"time": 27240, "pitch": 58, "duration": 360, "velocity": 80, "pitch_str": "Bb"}, {"time": 27600, "pitch": 56, "duration": 720, "velocity": 80, "pitch_str": "Ab"}, {"time": 28320, "pitch": 60, "duration": 160, "velocity": 80, "pitch_str": "C"}, {"time": 28480, "pitch": 63, "duration": 160, "velocity": 80, "pitch_str": "Eb"}, {"time": 28640, "pitch": 64, "duration": 160, "velocity": 80, "pitch_str": "E"}]}, {"program": 0, "is_drum": false, "name": "Piano", "notes": [{"time": 0, "pitch": 41, "duration": 480, "velocity": 96, "pitch_str": "F"}, {"time": 0, "pitch": 53, "duration": 480, "velocity": 96, "pitch_str": "F"}, {"time": 480, "pitch": 40, "duration": 480, "velocity": 96, "pitch_str": "E"}, {"time": 480, "pitch": 52, "duration": 480, "velocity": 96, "pitch_str": "E"}, {"time": 960, "pitch": 39, "duration": 360, "velocity": 96, "pitch_str": "Eb"}, {"time": 960, "pitch": 51, "duration": 360, "velocity": 96, "pitch_str": "Eb"}, {"time": 1320, "pitch": 38, "duration": 360, "velocity": 96, "pitch_str": "D"}, {"time": 1320, "pitch": 50, "duration": 360, "velocity": 96, "pitch_str": "D"}, {"time": 1680, "pitch": 38, "duration": 240, "velocity": 96, "pitch_str": "D"}, {"time": 1680, "pitch": 50, "duration": 240, "velocity": 96, "pitch_str": "D"}, {"time": 1920, "pitch": 37, "duration": 720, "velocity": 96, "pitch_str": "Db"}, {"time": 1920, "pitch": 49, "duration": 720, "velocity": 96, "pitch_str": "Db"}, {"time": 2640, "pitch": 37, "duration": 240, "velocity": 96, "pitch_str": "Db"}, {"time": 2640, "pitch": 49, "duration": 240, "velocity": 96, "pitch_str": "Db"}, {"time": 2880, "pitch": 36, "duration": 480, "velocity": 96, "pitch_str": "C"}, {"time": 2880, "pitch": 48, "duration": 480, "velocity": 96, "pitch_str": "C"}, {"time": 3360, "pitch": 36, "duration": 240, "velocity": 96, "pitch_str": "C"}, {"time": 3360, "pitch": 48, "duration": 240, "velocity": 96, "pitch_str": "C"}, {"time": 3600, "pitch": 39, "duration": 240, "velocity": 96, "pitch_str": "Eb"}, {"time": 3600, "pitch": 51, "duration": 240, "velocity": 96, "pitch_str": "Eb"}, {"time": 3840, "pitch": 41, "duration": 240, "velocity": 96, "pitch_str": "F"}, {"time": 3840, "pitch": 53, "duration": 240, "velocity": 96, "pitch_str": "F"}, {"time": 4080, "pitch": 41, "duration": 120, "velocity": 96, "pitch_str": "F"}, {"time": 4080, "pitch": 53, "duration": 120, "velocity": 96, "pitch_str": "F"}, {"time": 4200, "pitch": 40, "duration": 240, "velocity": 96, "pitch_str": "E"}, {"time": 4200, "pitch": 52, "duration": 240, "velocity": 96, "pitch_str": "E"}, {"time": 4440, "pitch": 40, "duration": 120, "velocity": 96, "pitch_str": "E"}, {"time": 4440, "pitch": 52, "duration": 120, "velocity": 96, "pitch_str": "E"}, {"time": 4560, "pitch": 39, "duration": 240, "velocity": 96, "pitch_str": "Eb"}, {"time": 4560, "pitch": 51, "duration": 240, "velocity": 96, "pitch_str": "Eb"}, {"time": 4800, "pitch": 39, "duration": 120, "velocity": 96, "pitch_str": "Eb"}, {"time": 4800, "pitch": 51, "duration": 120, "velocity": 96, "pitch_str": "Eb"}, {"time": 4920, "pitch": 38, "duration": 240, "velocity": 96, "pitch_str": "D"}, {"time": 4920, "pitch": 50, "duration": 240, "velocity": 96, "pitch_str": "D"}, {"time": 5160, "pitch": 38, "duration": 120, "velocity": 96, "pitch_str": "D"}, {"time": 5160, "pitch": 50, "duration": 120, "velocity": 96, "pitch_str": "D"}, {"time": 5280, "pitch": 32, "duration": 240, "velocity": 96, "pitch_str": "Ab"}, {"time": 5280, "pitch": 44, "duration": 240, "velocity": 96, "pitch_str": "Ab"}, {"time": 5520, "pitch": 32, "duration": 240, "velocity": 96, "pitch_str": "Ab"}, {"time": 5520, "pitch": 44, "duration": 240, "velocity": 96, "pitch_str": "Ab"}, {"time": 5760, "pitch": 41, "duration": 240, "velocity": 96, "pitch_str": "F"}, {"time": 5760, "pitch": 53, "duration": 240, "velocity": 96, "pitch_str": "F"}, {"time": 6000, "pitch": 41, "duration": 120, "velocity": 96, "pitch_str": "F"}, {"time": 6000, "pitch": 53, "duration": 120, "velocity": 96, "pitch_str": "F"}, {"time": 6120, "pitch": 40, "duration": 240, "velocity": 96, "pitch_str": "E"}, {"time": 6120, "pitch": 52, "duration": 240, "velocity": 96, "pitch_str": "E"}, {"time": 6360, "pitch": 40, "duration": 120, "velocity": 96, "pitch_str": "E"}, {"time": 6360, "pitch": 52, "duration": 120, "velocity": 96, "pitch_str": "E"}, {"time": 6480, "pitch": 39, "duration": 240, "velocity": 96, "pitch_str": "Eb"}, {"time": 6480, "pitch": 51, "duration": 240, "velocity": 96, "pitch_str": "Eb"}, {"time": 6720, "pitch": 39, "duration": 120, "velocity": 96, "pitch_str": "Eb"}, {"time": 6720, "pitch": 51, "duration": 120, "velocity": 96, "pitch_str": "Eb"}, {"time": 6840, "pitch": 38, "duration": 240, "velocity": 96, "pitch_str": "D"}, {"time": 6840, "pitch": 50, "duration": 240, "velocity": 96, "pitch_str": "D"}, {"time": 7080, "pitch": 38, "duration": 120, "velocity": 96, "pitch_str": "D"}, {"time": 7080, "pitch": 50, "duration": 120, "velocity": 96, "pitch_str": "D"}, {"time": 7200, "pitch": 32, "duration": 240, "velocity": 96, "pitch_str": "Ab"}, {"time": 7200, "pitch": 44, "duration": 240, "velocity": 96, "pitch_str": "Ab"}, {"time": 7440, "pitch": 32, "duration": 240, "velocity": 96, "pitch_str": "Ab"}, {"time": 7440, "pitch": 44, "duration": 240, "velocity": 96, "pitch_str": "Ab"}, {"time": 7680, "pitch": 41, "duration": 480, "velocity": 96, "pitch_str": "F"}, {"time": 7680, "pitch": 53, "duration": 480, "velocity": 96, "pitch_str": "F"}, {"time": 8160, "pitch": 40, "duration": 480, "velocity": 96, "pitch_str": "E"}, {"time": 8160, "pitch": 52, "duration": 480, "velocity": 96, "pitch_str": "E"}, {"time": 8640, "pitch": 39, "duration": 360, "velocity": 96, "pitch_str": "Eb"}, {"time": 8640, "pitch": 51, "duration": 360, "velocity": 96, "pitch_str": "Eb"}, {"time": 9000, "pitch": 38, "duration": 360, "velocity": 96, "pitch_str": "D"}, {"time": 9000, "pitch": 50, "duration": 360, "velocity": 96, "pitch_str": "D"}, {"time": 9360, "pitch": 38, "duration": 240, "velocity": 96, "pitch_str": "D"}, {"time": 9360, "pitch": 50, "duration": 240, "velocity": 96, "pitch_str": "D"}, {"time": 9600, "pitch": 37, "duration": 720, "velocity": 96, "pitch_str": "Db"}, {"time": 9600, "pitch": 49, "duration": 720, "velocity": 96, "pitch_str": "Db"}, {"time": 10320, "pitch": 37, "duration": 240, "velocity": 96, "pitch_str": "Db"}, {"time": 10320, "pitch": 49, "duration": 240, "velocity": 96, "pitch_str": "Db"}, {"time": 10560, "pitch": 36, "duration": 480, "velocity": 96, "pitch_str": "C"}, {"time": 10560, "pitch": 48, "duration": 480, "velocity": 96, "pitch_str": "C"}, {"time": 11040, "pitch": 36, "duration": 240, "velocity": 96, "pitch_str": "C"}, {"time": 11040, "pitch": 48, "duration": 240, "velocity": 96, "pitch_str": "C"}, {"time": 11280, "pitch": 39, "duration": 240, "velocity": 96, "pitch_str": "Eb"}, {"time": 11280, "pitch": 51, "duration": 240, "velocity": 96, "pitch_str": "Eb"}, {"time": 11520, "pitch": 41, "duration": 360, "velocity": 96, "pitch_str": "F"}, {"time": 11520, "pitch": 53, "duration": 360, "velocity": 96, "pitch_str": "F"}, {"time": 11880, "pitch": 47, "duration": 240, "velocity": 96, "pitch_str": "B"}, {"time": 11880, "pitch": 59, "duration": 240, "velocity": 96, "pitch_str": "B"}, {"time": 12120, "pitch": 46, "duration": 120, "velocity": 96, "pitch_str": "Bb"}, {"time": 12120, "pitch": 58, "duration": 120, "velocity": 96, "pitch_str": "Bb"}, {"time": 12240, "pitch": 44, "duration": 240, "velocity": 96, "pitch_str": "Ab"}, {"time": 12240, "pitch": 56, "duration": 240, "velocity": 96, "pitch_str": "Ab"}, {"time": 12480, "pitch": 41, "duration": 360, "velocity": 96, "pitch_str": "F"}, {"time": 12480, "pitch": 53, "duration": 360, "velocity": 96, "pitch_str": "F"}, {"time": 12840, "pitch": 47, "duration": 240, "velocity": 96, "pitch_str": "B"}, {"time": 12840, "pitch": 59, "duration": 240, "velocity": 96, "pitch_str": "B"}, {"time": 13080, "pitch": 46, "duration": 120, "velocity": 96, "pitch_str": "Bb"}, {"time": 13080, "pitch": 58, "duration": 120, "velocity": 96, "pitch_str": "Bb"}, {"time": 13200, "pitch": 44, "duration": 240, "velocity": 96, "pitch_str": "Ab"}, {"time": 13200, "pitch": 56, "duration": 240, "velocity": 96, "pitch_str": "Ab"}, {"time": 13440, "pitch": 41, "duration": 240, "velocity": 96, "pitch_str": "F"}, {"time": 13440, "pitch": 53, "duration": 240, "velocity": 96, "pitch_str": "F"}, {"time": 13680, "pitch": 41, "duration": 120, "velocity": 96, "pitch_str": "F"}, {"time": 13680, "pitch": 53, "duration": 120, "velocity": 96, "pitch_str": "F"}, {"time": 13800, "pitch": 40, "duration": 240, "velocity": 96, "pitch_str": "E"}, {"time": 13800, "pitch": 52, "duration": 240, "velocity": 96, "pitch_str": "E"}, {"time": 14040, "pitch": 40, "duration": 120, "velocity": 96, "pitch_str": "E"}, {"time": 14040, "pitch": 52, "duration": 120, "velocity": 96, "pitch_str": "E"}, {"time": 14160, "pitch": 39, "duration": 240, "velocity": 96, "pitch_str": "Eb"}, {"time": 14160, "pitch": 51, "duration": 240, "velocity": 96, "pitch_str": "Eb"}, {"time": 14400, "pitch": 39, "duration": 120, "velocity": 96, "pitch_str": "Eb"}, {"time": 14400, "pitch": 51, "duration": 120, "velocity": 96, "pitch_str": "Eb"}, {"time": 14520, "pitch": 38, "duration": 240, "velocity": 96, "pitch_str": "D"}, {"time": 14520, "pitch": 50, "duration": 240, "velocity": 96, "pitch_str": "D"}, {"time": 14760, "pitch": 38, "duration": 120, "velocity": 96, "pitch_str": "D"}, {"time": 14760, "pitch": 50, "duration": 120, "velocity": 96, "pitch_str": "D"}, {"time": 14880, "pitch": 32, "duration": 240, "velocity": 96, "pitch_str": "Ab"}, {"time": 14880, "pitch": 44, "duration": 240, "velocity": 96, "pitch_str": "Ab"}, {"time": 15120, "pitch": 32, "duration": 240, "velocity": 96, "pitch_str": "Ab"}, {"time": 15120, "pitch": 44, "duration": 240, "velocity": 96, "pitch_str": "Ab"}, {"time": 15360, "pitch": 41, "duration": 480, "velocity": 96, "pitch_str": "F"}, {"time": 15360, "pitch": 65, "duration": 1920, "velocity": 64, "pitch_str": "F"}, {"time": 17280, "pitch": 53, "duration": 480, "velocity": 96, "pitch_str": "F"}, {"time": 17280, "pitch": 60, "duration": 480, "velocity": 96, "pitch_str": "C"}, {"time": 17280, "pitch": 68, "duration": 480, "velocity": 64, "pitch_str": "Ab"}, {"time": 17280, "pitch": 72, "duration": 480, "velocity": 64, "pitch_str": "C"}, {"time": 17280, "pitch": 77, "duration": 480, "velocity": 64, "pitch_str": "F"}, {"time": 17760, "pitch": 52, "duration": 480, "velocity": 96, "pitch_str": "E"}, {"time": 17760, "pitch": 60, "duration": 480, "velocity": 96, "pitch_str": "C"}, {"time": 17760, "pitch": 72, "duration": 480, "velocity": 64, "pitch_str": "C"}, {"time": 17760, "pitch": 76, "duration": 480, "velocity": 64, "pitch_str": "E"}, {"time": 17760, "pitch": 79, "duration": 480, "velocity": 64, "pitch_str": "G"}, {"time": 18240, "pitch": 51, "duration": 360, "velocity": 96, "pitch_str": "Eb"}, {"time": 18240, "pitch": 60, "duration": 360, "velocity": 96, "pitch_str": "C"}, {"time": 18240, "pitch": 72, "duration": 360, "velocity": 64, "pitch_str": "C"}, {"time": 18240, "pitch": 75, "duration": 360, "velocity": 64, "pitch_str": "Eb"}, {"time": 18240, "pitch": 80, "duration": 360, "velocity": 64, "pitch_str": "Ab"}, {"time": 18600, "pitch": 50, "duration": 360, "velocity": 96, "pitch_str": "D"}, {"time": 18600, "pitch": 62, "duration": 360, "velocity": 96, "pitch_str": "D"}, {"time": 18600, "pitch": 74, "duration": 600, "velocity": 64, "pitch_str": "D"}, {"time": 18600, "pitch": 77, "duration": 600, "velocity": 64, "pitch_str": "F"}, {"time": 18600, "pitch": 84, "duration": 360, "velocity": 64, "pitch_str": "C"}, {"time": 18960, "pitch": 50, "duration": 240, "velocity": 96, "pitch_str": "D"}, {"time": 18960, "pitch": 60, "duration": 240, "velocity": 96, "pitch_str": "C"}, {"time": 18960, "pitch": 80, "duration": 240, "velocity": 64, "pitch_str": "Ab"}, {"time": 19200, "pitch": 49, "duration": 720, "velocity": 96, "pitch_str": "Db"}, {"time": 19200, "pitch": 61, "duration": 720, "velocity": 96, "pitch_str": "Db"}, {"time": 19200, "pitch": 73, "duration": 720, "velocity": 64, "pitch_str": "Db"}, {"time": 19200, "pitch": 77, "duration": 720, "velocity": 64, "pitch_str": "F"}, {"time": 19200, "pitch": 83, "duration": 360, "velocity": 64, "pitch_str": "B"}, {"time": 19560, "pitch": 82, "duration": 360, "velocity": 64, "pitch_str": "Bb"}, {"time": 19920, "pitch": 48, "duration": 720, "velocity": 96, "pitch_str": "C"}, {"time": 19920, "pitch": 60, "duration": 720, "velocity": 96, "pitch_str": "C"}, {"time": 19920, "pitch": 72, "duration": 720, "velocity": 64, "pitch_str": "C"}, {"time": 19920, "pitch": 76, "duration": 720, "velocity": 64, "pitch_str": "E"}, {"time": 19920, "pitch": 80, "duration": 720, "velocity": 64, "pitch_str": "Ab"}, {"time": 20640, "pitch": 36, "duration": 480, "velocity": 96, "pitch_str": "C"}, {"time": 20640, "pitch": 48, "duration": 480, "velocity": 96, "pitch_str": "C"}, {"time": 20640, "pitch": 60, "duration": 480, "velocity": 64, "pitch_str": "C"}, {"time": 20640, "pitch": 68, "duration": 480, "velocity": 64, "pitch_str": "Ab"}, {"time": 20640, "pitch": 72, "duration": 480, "velocity": 64, "pitch_str": "C"}, {"time": 21120, "pitch": 53, "duration": 960, "velocity": 96, "pitch_str": "F"}, {"time": 21120, "pitch": 60, "duration": 960, "velocity": 96, "pitch_str": "C"}, {"time": 21120, "pitch": 68, "duration": 360, "velocity": 64, "pitch_str": "Ab"}, {"time": 21120, "pitch": 72, "duration": 360, "velocity": 64, "pitch_str": "C"}, {"time": 21120, "pitch": 75, "duration": 120, "velocity": 64, "pitch_str": "Eb"}, {"time": 21240, "pitch": 76, "duration": 240, "velocity": 64, "pitch_str": "E"}, {"time": 21480, "pitch": 68, "duration": 1560, "velocity": 64, "pitch_str": "Ab"}, {"time": 21480, "pitch": 72, "duration": 1560, "velocity": 64, "pitch_str": "C"}, {"time": 21480, "pitch": 77, "duration": 7320, "velocity": 64, "pitch_str": "F"}, {"time": 22080, "pitch": 52, "duration": 480, "velocity": 96, "pitch_str": "E"}, {"time": 22080, "pitch": 60, "duration": 480, "velocity": 96, "pitch_str": "C"}, {"time": 22560, "pitch": 51, "duration": 480, "velocity": 96, "pitch_str": "Eb"}, {"time": 22560, "pitch": 60, "duration": 480, "velocity": 96, "pitch_str": "C"}, {"time": 23040, "pitch": 50, "duration": 360, "velocity": 96, "pitch_str": "D"}, {"time": 23040, "pitch": 60, "duration": 360, "velocity": 96, "pitch_str": "C"}, {"time": 23400, "pitch": 49, "duration": 360, "velocity": 96, "pitch_str": "Db"}, {"time": 23400, "pitch": 60, "duration": 360, "velocity": 96, "pitch_str": "C"}, {"time": 23760, "pitch": 48, "duration": 1200, "velocity": 96, "pitch_str": "C"}, {"time": 23760, "pitch": 60, "duration": 1200, "velocity": 96, "pitch_str": "C"}, {"time": 24960, "pitch": 41, "duration": 480, "velocity": 96, "pitch_str": "F"}, {"time": 24960, "pitch": 53, "duration": 480, "velocity": 96, "pitch_str": "F"}, {"time": 25440, "pitch": 40, "duration": 480, "velocity": 96, "pitch_str": "E"}, {"time": 25440, "pitch": 52, "duration": 480, "velocity": 96, "pitch_str": "E"}, {"time": 25920, "pitch": 39, "duration": 360, "velocity": 96, "pitch_str": "Eb"}, {"time": 25920, "pitch": 51, "duration": 360, "velocity": 96, "pitch_str": "Eb"}, {"time": 26280, "pitch": 38, "duration": 360, "velocity": 96, "pitch_str": "D"}, {"time": 26280, "pitch": 50, "duration": 360, "velocity": 96, "pitch_str": "D"}, {"time": 26640, "pitch": 38, "duration": 240, "velocity": 96, "pitch_str": "D"}, {"time": 26640, "pitch": 50, "duration": 240, "velocity": 96, "pitch_str": "D"}, {"time": 26880, "pitch": 37, "duration": 720, "velocity": 96, "pitch_str": "Db"}, {"time": 26880, "pitch": 49, "duration": 720, "velocity": 96, "pitch_str": "Db"}, {"time": 27600, "pitch": 37, "duration": 240, "velocity": 96, "pitch_str": "Db"}, {"time": 27600, "pitch": 49, "duration": 240, "velocity": 96, "pitch_str": "Db"}, {"time": 27840, "pitch": 36, "duration": 480, "velocity": 96, "pitch_str": "C"}, {"time": 27840, "pitch": 48, "duration": 480, "velocity": 96, "pitch_str": "C"}, {"time": 28320, "pitch": 36, "duration": 240, "velocity": 96, "pitch_str": "C"}, {"time": 28320, "pitch": 48, "duration": 240, "velocity": 96, "pitch_str": "C"}, {"time": 28560, "pitch": 39, "duration": 240, "velocity": 96, "pitch_str": "Eb"}, {"time": 28560, "pitch": 51, "duration": 240, "velocity": 96, "pitch_str": "Eb"}, {"time": 28800, "pitch": 53, "duration": 960, "velocity": 96, "pitch_str": "F"}, {"time": 28800, "pitch": 60, "duration": 960, "velocity": 96, "pitch_str": "C"}, {"time": 29760, "pitch": 52, "duration": 480, "velocity": 96, "pitch_str": "E"}, {"time": 29760, "pitch": 60, "duration": 480, "velocity": 96, "pitch_str": "C"}, {"time": 30240, "pitch": 51, "duration": 480, "velocity": 96, "pitch_str": "Eb"}, {"time": 30240, "pitch": 60, "duration": 480, "velocity": 96, "pitch_str": "C"}, {"time": 30720, "pitch": 50, "duration": 360, "velocity": 96, "pitch_str": "D"}, {"time": 30720, "pitch": 60, "duration": 360, "velocity": 96, "pitch_str": "C"}, {"time": 31080, "pitch": 49, "duration": 360, "velocity": 96, "pitch_str": "Db"}, {"time": 31080, "pitch": 60, "duration": 360, "velocity": 96, "pitch_str": "C"}, {"time": 31440, "pitch": 48, "duration": 1200, "velocity": 96, "pitch_str": "C"}, {"time": 31440, "pitch": 60, "duration": 1200, "velocity": 96, "pitch_str": "C"}, {"time": 32640, "pitch": 41, "duration": 480, "velocity": 96, "pitch_str": "F"}]}, {"program": 33, "is_drum": true, "name": "Bass", "notes": [{"time": 0, "pitch": 41, "duration": 480, "velocity": 96, "pitch_str": "F"}, {"time": 480, "pitch": 40, "duration": 480, "velocity": 96, "pitch_str": "E"}, {"time": 960, "pitch": 39, "duration": 360, "velocity": 96, "pitch_str": "Eb"}, {"time": 1320, "pitch": 38, "duration": 360, "velocity": 96, "pitch_str": "D"}, {"time": 1680, "pitch": 38, "duration": 240, "velocity": 96, "pitch_str": "D"}, {"time": 1920, "pitch": 37, "duration": 720, "velocity": 96, "pitch_str": "Db"}, {"time": 2640, "pitch": 37, "duration": 240, "velocity": 96, "pitch_str": "Db"}, {"time": 2880, "pitch": 36, "duration": 480, "velocity": 96, "pitch_str": "C"}, {"time": 3360, "pitch": 36, "duration": 240, "velocity": 96, "pitch_str": "C"}, {"time": 3600, "pitch": 39, "duration": 240, "velocity": 96, "pitch_str": "Eb"}, {"time": 3840, "pitch": 41, "duration": 240, "velocity": 96, "pitch_str": "F"}, {"time": 4080, "pitch": 41, "duration": 120, "velocity": 96, "pitch_str": "F"}, {"time": 4200, "pitch": 40, "duration": 240, "velocity": 96, "pitch_str": "E"}, {"time": 4440, "pitch": 40, "duration": 120, "velocity": 96, "pitch_str": "E"}, {"time": 4560, "pitch": 39, "duration": 240, "velocity": 96, "pitch_str": "Eb"}, {"time": 4800, "pitch": 39, "duration": 120, "velocity": 96, "pitch_str": "Eb"}, {"time": 4920, "pitch": 38, "duration": 240, "velocity": 96, "pitch_str": "D"}, {"time": 5160, "pitch": 38, "duration": 120, "velocity": 96, "pitch_str": "D"}, {"time": 5280, "pitch": 32, "duration": 240, "velocity": 96, "pitch_str": "Ab"}, {"time": 5520, "pitch": 32, "duration": 240, "velocity": 96, "pitch_str": "Ab"}, {"time": 5760, "pitch": 41, "duration": 240, "velocity": 96, "pitch_str": "F"}, {"time": 6000, "pitch": 41, "duration": 120, "velocity": 96, "pitch_str": "F"}, {"time": 6120, "pitch": 40, "duration": 240, "velocity": 96, "pitch_str": "E"}, {"time": 6360, "pitch": 40, "duration": 120, "velocity": 96, "pitch_str": "E"}, {"time": 6480, "pitch": 39, "duration": 240, "velocity": 96, "pitch_str": "Eb"}, {"time": 6720, "pitch": 39, "duration": 120, "velocity": 96, "pitch_str": "Eb"}, {"time": 6840, "pitch": 38, "duration": 240, "velocity": 96, "pitch_str": "D"}, {"time": 7080, "pitch": 38, "duration": 120, "velocity": 96, "pitch_str": "D"}, {"time": 7200, "pitch": 32, "duration": 240, "velocity": 96, "pitch_str": "Ab"}, {"time": 7440, "pitch": 32, "duration": 240, "velocity": 96, "pitch_str": "Ab"}, {"time": 7680, "pitch": 41, "duration": 480, "velocity": 96, "pitch_str": "F"}, {"time": 8160, "pitch": 40, "duration": 480, "velocity": 96, "pitch_str": "E"}, {"time": 8640, "pitch": 39, "duration": 360, "velocity": 96, "pitch_str": "Eb"}, {"time": 9000, "pitch": 38, "duration": 360, "velocity": 96, "pitch_str": "D"}, {"time": 9360, "pitch": 38, "duration": 240, "velocity": 96, "pitch_str": "D"}, {"time": 9600, "pitch": 37, "duration": 720, "velocity": 96, "pitch_str": "Db"}, {"time": 10320, "pitch": 37, "duration": 240, "velocity": 96, "pitch_str": "Db"}, {"time": 10560, "pitch": 36, "duration": 480, "velocity": 96, "pitch_str": "C"}, {"time": 11040, "pitch": 36, "duration": 240, "velocity": 96, "pitch_str": "C"}, {"time": 11280, "pitch": 39, "duration": 240, "velocity": 96, "pitch_str": "Eb"}, {"time": 11520, "pitch": 41, "duration": 360, "velocity": 96, "pitch_str": "F"}, {"time": 11880, "pitch": 47, "duration": 240, "velocity": 96, "pitch_str": "B"}, {"time": 12120, "pitch": 46, "duration": 120, "velocity": 96, "pitch_str": "Bb"}, {"time": 12240, "pitch": 44, "duration": 240, "velocity": 96, "pitch_str": "Ab"}, {"time": 12480, "pitch": 41, "duration": 360, "velocity": 96, "pitch_str": "F"}, {"time": 12840, "pitch": 47, "duration": 240, "velocity": 96, "pitch_str": "B"}, {"time": 13080, "pitch": 46, "duration": 120, "velocity": 96, "pitch_str": "Bb"}, {"time": 13200, "pitch": 44, "duration": 240, "velocity": 96, "pitch_str": "Ab"}, {"time": 13440, "pitch": 41, "duration": 240, "velocity": 96, "pitch_str": "F"}, {"time": 13680, "pitch": 41, "duration": 120, "velocity": 96, "pitch_str": "F"}, {"time": 13800, "pitch": 40, "duration": 240, "velocity": 96, "pitch_str": "E"}, {"time": 14040, "pitch": 40, "duration": 120, "velocity": 96, "pitch_str": "E"}, {"time": 14160, "pitch": 39, "duration": 240, "velocity": 96, "pitch_str": "Eb"}, {"time": 14400, "pitch": 39, "duration": 120, "velocity": 96, "pitch_str": "Eb"}, {"time": 14520, "pitch": 38, "duration": 240, "velocity": 96, "pitch_str": "D"}, {"time": 14760, "pitch": 38, "duration": 120, "velocity": 96, "pitch_str": "D"}, {"time": 14880, "pitch": 32, "duration": 240, "velocity": 96, "pitch_str": "Ab"}, {"time": 15120, "pitch": 32, "duration": 240, "velocity": 96, "pitch_str": "Ab"}, {"time": 15360, "pitch": 29, "duration": 480, "velocity": 96, "pitch_str": "F"}, {"time": 24960, "pitch": 41, "duration": 480, "velocity": 96, "pitch_str": "F"}, {"time": 25440, "pitch": 40, "duration": 480, "velocity": 96, "pitch_str": "E"}, {"time": 25920, "pitch": 39, "duration": 360, "velocity": 96, "pitch_str": "Eb"}, {"time": 26280, "pitch": 38, "duration": 360, "velocity": 96, "pitch_str": "D"}, {"time": 26640, "pitch": 38, "duration": 240, "velocity": 96, "pitch_str": "D"}, {"time": 26880, "pitch": 37, "duration": 720, "velocity": 96, "pitch_str": "Db"}, {"time": 27600, "pitch": 37, "duration": 240, "velocity": 96, "pitch_str": "Db"}, {"time": 27840, "pitch": 36, "duration": 480, "velocity": 96, "pitch_str": "C"}, {"time": 28320, "pitch": 36, "duration": 240, "velocity": 96, "pitch_str": "C"}, {"time": 28560, "pitch": 39, "duration": 240, "velocity": 96, "pitch_str": "Eb"}, {"time": 28800, "pitch": 41, "duration": 960, "velocity": 96, "pitch_str": "F"}, {"time": 29760, "pitch": 40, "duration": 480, "velocity": 96, "pitch_str": "E"}, {"time": 30240, "pitch": 39, "duration": 480, "velocity": 96, "pitch_str": "Eb"}, {"time": 30720, "pitch": 38, "duration": 360, "velocity": 96, "pitch_str": "D"}, {"time": 31080, "pitch": 37, "duration": 360, "velocity": 96, "pitch_str": "Db"}, {"time": 31440, "pitch": 36, "duration": 1200, "velocity": 96, "pitch_str": "C"}, {"time": 32640, "pitch": 29, "duration": 480, "velocity": 96, "pitch_str": "F"}]}, {"program": 0, "is_drum": false, "name": "Drums", "notes": [{"time": 0, "pitch": 36, "duration": 480, "velocity": 80, "pitch_str": "C"}, {"time": 0, "pitch": 38, "duration": 480, "velocity": 80, "pitch_str": "D"}, {"time": 480, "pitch": 36, "duration": 480, "velocity": 80, "pitch_str": "C"}, {"time": 480, "pitch": 38, "duration": 480, "velocity": 80, "pitch_str": "D"}, {"time": 960, "pitch": 36, "duration": 360, "velocity": 80, "pitch_str": "C"}, {"time": 960, "pitch": 38, "duration": 360, "velocity": 80, "pitch_str": "D"}, {"time": 1320, "pitch": 36, "duration": 360, "velocity": 80, "pitch_str": "C"}, {"time": 1320, "pitch": 38, "duration": 360, "velocity": 80, "pitch_str": "D"}, {"time": 1680, "pitch": 36, "duration": 240, "velocity": 80, "pitch_str": "C"}, {"time": 1680, "pitch": 38, "duration": 240, "velocity": 80, "pitch_str": "D"}, {"time": 1920, "pitch": 36, "duration": 360, "velocity": 80, "pitch_str": "C"}, {"time": 1920, "pitch": 38, "duration": 360, "velocity": 80, "pitch_str": "D"}, {"time": 2280, "pitch": 36, "duration": 360, "velocity": 80, "pitch_str": "C"}, {"time": 2280, "pitch": 38, "duration": 360, "velocity": 80, "pitch_str": "D"}, {"time": 2640, "pitch": 36, "duration": 240, "velocity": 80, "pitch_str": "C"}, {"time": 2640, "pitch": 38, "duration": 240, "velocity": 80, "pitch_str": "D"}, {"time": 2880, "pitch": 36, "duration": 240, "velocity": 80, "pitch_str": "C"}, {"time": 2880, "pitch": 38, "duration": 240, "velocity": 80, "pitch_str": "D"}, {"time": 3120, "pitch": 36, "duration": 240, "velocity": 80, "pitch_str": "C"}, {"time": 3120, "pitch": 38, "duration": 240, "velocity": 80, "pitch_str": "D"}, {"time": 3360, "pitch": 36, "duration": 240, "velocity": 80, "pitch_str": "C"}, {"time": 3360, "pitch": 38, "duration": 240, "velocity": 80, "pitch_str": "D"}, {"time": 3600, "pitch": 36, "duration": 240, "velocity": 80, "pitch_str": "C"}, {"time": 3600, "pitch": 38, "duration": 240, "velocity": 80, "pitch_str": "D"}, {"time": 3840, "pitch": 36, "duration": 360, "velocity": 80, "pitch_str": "C"}, {"time": 3840, "pitch": 42, "duration": 120, "velocity": 80, "pitch_str": "F#"}, {"time": 3960, "pitch": 42, "duration": 120, "velocity": 80, "pitch_str": "F#"}, {"time": 4080, "pitch": 42, "duration": 120, "velocity": 80, "pitch_str": "F#"}, {"time": 4200, "pitch": 36, "duration": 360, "velocity": 80, "pitch_str": "C"}, {"time": 4200, "pitch": 42, "duration": 120, "velocity": 80, "pitch_str": "F#"}, {"time": 4320, "pitch": 42, "duration": 120, "velocity": 80, "pitch_str": "F#"}, {"time": 4440, "pitch": 42, "duration": 120, "velocity": 80, "pitch_str": "F#"}, {"time": 4560, "pitch": 36, "duration": 360, "velocity": 80, "pitch_str": "C"}, {"time": 4560, "pitch": 42, "duration": 120, "velocity": 80, "pitch_str": "F#"}, {"time": 4680, "pitch": 42, "duration": 120, "velocity": 80, "pitch_str": "F#"}, {"time": 4800, "pitch": 42, "duration": 120, "velocity": 80, "pitch_str": "F#"}, {"time": 4920, "pitch": 36, "duration": 360, "velocity": 80, "pitch_str": "C"}, {"time": 4920, "pitch": 42, "duration": 120, "velocity": 80, "pitch_str": "F#"}, {"time": 5040, "pitch": 42, "duration": 120, "velocity": 80, "pitch_str": "F#"}, {"time": 5160, "pitch": 42, "duration": 120, "velocity": 80, "pitch_str": "F#"}, {"time": 5280, "pitch": 36, "duration": 240, "velocity": 80, "pitch_str": "C"}, {"time": 5280, "pitch": 42, "duration": 120, "velocity": 80, "pitch_str": "F#"}, {"time": 5400, "pitch": 42, "duration": 120, "velocity": 80, "pitch_str": "F#"}, {"time": 5520, "pitch": 36, "duration": 240, "velocity": 80, "pitch_str": "C"}, {"time": 5520, "pitch": 42, "duration": 120, "velocity": 80, "pitch_str": "F#"}, {"time": 5640, "pitch": 42, "duration": 120, "velocity": 80, "pitch_str": "F#"}, {"time": 5760, "pitch": 36, "duration": 360, "velocity": 80, "pitch_str": "C"}, {"time": 5760, "pitch": 42, "duration": 120, "velocity": 80, "pitch_str": "F#"}, {"time": 5880, "pitch": 42, "duration": 120, "velocity": 80, "pitch_str": "F#"}, {"time": 6000, "pitch": 42, "duration": 120, "velocity": 80, "pitch_str": "F#"}, {"time": 6120, "pitch": 36, "duration": 360, "velocity": 80, "pitch_str": "C"}, {"time": 6120, "pitch": 42, "duration": 120, "velocity": 80, "pitch_str": "F#"}, {"time": 6240, "pitch": 42, "duration": 120, "velocity": 80, "pitch_str": "F#"}, {"time": 6360, "pitch": 42, "duration": 120, "velocity": 80, "pitch_str": "F#"}, {"time": 6480, "pitch": 36, "duration": 360, "velocity": 80, "pitch_str": "C"}, {"time": 6480, "pitch": 42, "duration": 120, "velocity": 80, "pitch_str": "F#"}, {"time": 6600, "pitch": 42, "duration": 120, "velocity": 80, "pitch_str": "F#"}, {"time": 6720, "pitch": 42, "duration": 120, "velocity": 80, "pitch_str": "F#"}, {"time": 6840, "pitch": 36, "duration": 360, "velocity": 80, "pitch_str": "C"}, {"time": 6840, "pitch": 42, "duration": 120, "velocity": 80, "pitch_str": "F#"}, {"time": 6960, "pitch": 42, "duration": 120, "velocity": 80, "pitch_str": "F#"}, {"time": 7080, "pitch": 42, "duration": 120, "velocity": 80, "pitch_str": "F#"}, {"time": 7200, "pitch": 36, "duration": 240, "velocity": 80, "pitch_str": "C"}, {"time": 7200, "pitch": 42, "duration": 120, "velocity": 80, "pitch_str": "F#"}, {"time": 7320, "pitch": 42, "duration": 120, "velocity": 80, "pitch_str": "F#"}, {"time": 7440, "pitch": 36, "duration": 240, "velocity": 80, "pitch_str": "C"}, {"time": 7440, "pitch": 42, "duration": 120, "velocity": 80, "pitch_str": "F#"}, {"time": 7560, "pitch": 42, "duration": 120, "velocity": 80, "pitch_str": "F#"}, {"time": 7680, "pitch": 36, "duration": 480, "velocity": 80, "pitch_str": "C"}, {"time": 7680, "pitch": 38, "duration": 480, "velocity": 80, "pitch_str": "D"}, {"time": 8160, "pitch": 36, "duration": 480, "velocity": 80, "pitch_str": "C"}, {"time": 8160, "pitch": 38, "duration": 480, "velocity": 80, "pitch_str": "D"}, {"time": 8640, "pitch": 36, "duration": 480, "velocity": 80, "pitch_str": "C"}, {"time": 8640, "pitch": 38, "duration": 480, "velocity": 80, "pitch_str": "D"}, {"time": 9120, "pitch": 36, "duration": 480, "velocity": 80, "pitch_str": "C"}, {"time": 9120, "pitch": 38, "duration": 480, "velocity": 80, "pitch_str": "D"}, {"time": 9600, "pitch": 36, "duration": 480, "velocity": 80, "pitch_str": "C"}, {"time": 9600, "pitch": 38, "duration": 240, "velocity": 80, "pitch_str": "D"}, {"time": 9840, "pitch": 38, "duration": 240, "velocity": 80, "pitch_str": "D"}, {"time": 10080, "pitch": 36, "duration": 480, "velocity": 80, "pitch_str": "C"}, {"time": 10080, "pitch": 38, "duration": 240, "velocity": 80, "pitch_str": "D"}, {"time": 10320, "pitch": 38, "duration": 240, "velocity": 80, "pitch_str": "D"}, {"time": 10560, "pitch": 36, "duration": 480, "velocity": 80, "pitch_str": "C"}, {"time": 10560, "pitch": 38, "duration": 240, "velocity": 80, "pitch_str": "D"}, {"time": 10800, "pitch": 38, "duration": 240, "velocity": 80, "pitch_str": "D"}, {"time": 11040, "pitch": 36, "duration": 480, "velocity": 80, "pitch_str": "C"}, {"time": 11040, "pitch": 38, "duration": 240, "velocity": 80, "pitch_str": "D"}, {"time": 11280, "pitch": 38, "duration": 240, "velocity": 80, "pitch_str": "D"}, {"time": 11520, "pitch": 36, "duration": 480, "velocity": 80, "pitch_str": "C"}, {"time": 11520, "pitch": 53, "duration": 480, "velocity": 80, "pitch_str": "F"}, {"time": 12000, "pitch": 36, "duration": 480, "velocity": 80, "pitch_str": "C"}, {"time": 12000, "pitch": 53, "duration": 480, "velocity": 80, "pitch_str": "F"}, {"time": 12480, "pitch": 36, "duration": 480, "velocity": 80, "pitch_str": "C"}, {"time": 12480, "pitch": 53, "duration": 480, "velocity": 80, "pitch_str": "F"}, {"time": 12960, "pitch": 36, "duration": 480, "velocity": 80, "pitch_str": "C"}, {"time": 12960, "pitch": 53, "duration": 480, "velocity": 80, "pitch_str": "F"}, {"time": 13440, "pitch": 36, "duration": 360, "velocity": 80, "pitch_str": "C"}, {"time": 13440, "pitch": 38, "duration": 360, "velocity": 80, "pitch_str": "D"}, {"time": 13800, "pitch": 36, "duration": 360, "velocity": 80, "pitch_str": "C"}, {"time": 13800, "pitch": 38, "duration": 360, "velocity": 80, "pitch_str": "D"}, {"time": 14160, "pitch": 36, "duration": 360, "velocity": 80, "pitch_str": "C"}, {"time": 14160, "pitch": 38, "duration": 360, "velocity": 80, "pitch_str": "D"}, {"time": 14520, "pitch": 36, "duration": 360, "velocity": 80, "pitch_str": "C"}, {"time": 14520, "pitch": 38, "duration": 360, "velocity": 80, "pitch_str": "D"}, {"time": 14880, "pitch": 36, "duration": 240, "velocity": 80, "pitch_str": "C"}, {"time": 14880, "pitch": 38, "duration": 240, "velocity": 80, "pitch_str": "D"}, {"time": 15120, "pitch": 36, "duration": 240, "velocity": 80, "pitch_str": "C"}, {"time": 15120, "pitch": 38, "duration": 240, "velocity": 80, "pitch_str": "D"}, {"time": 15360, "pitch": 51, "duration": 480, "velocity": 80, "pitch_str": "Eb"}, {"time": 24960, "pitch": 36, "duration": 480, "velocity": 80, "pitch_str": "C"}, {"time": 24960, "pitch": 38, "duration": 480, "velocity": 80, "pitch_str": "D"}, {"time": 25440, "pitch": 36, "duration": 480, "velocity": 80, "pitch_str": "C"}, {"time": 25440, "pitch": 38, "duration": 480, "velocity": 80, "pitch_str": "D"}, {"time": 25920, "pitch": 36, "duration": 480, "velocity": 80, "pitch_str": "C"}, {"time": 25920, "pitch": 38, "duration": 480, "velocity": 80, "pitch_str": "D"}, {"time": 26400, "pitch": 36, "duration": 480, "velocity": 80, "pitch_str": "C"}, {"time": 26400, "pitch": 38, "duration": 480, "velocity": 80, "pitch_str": "D"}, {"time": 26880, "pitch": 36, "duration": 480, "velocity": 80, "pitch_str": "C"}, {"time": 26880, "pitch": 38, "duration": 240, "velocity": 80, "pitch_str": "D"}, {"time": 27120, "pitch": 38, "duration": 240, "velocity": 80, "pitch_str": "D"}, {"time": 27360, "pitch": 36, "duration": 480, "velocity": 80, "pitch_str": "C"}, {"time": 27360, "pitch": 38, "duration": 240, "velocity": 80, "pitch_str": "D"}, {"time": 27600, "pitch": 38, "duration": 240, "velocity": 80, "pitch_str": "D"}, {"time": 27840, "pitch": 36, "duration": 480, "velocity": 80, "pitch_str": "C"}, {"time": 27840, "pitch": 38, "duration": 240, "velocity": 80, "pitch_str": "D"}, {"time": 28080, "pitch": 38, "duration": 240, "velocity": 80, "pitch_str": "D"}, {"time": 28320, "pitch": 36, "duration": 480, "velocity": 80, "pitch_str": "C"}, {"time": 28320, "pitch": 38, "duration": 240, "velocity": 80, "pitch_str": "D"}, {"time": 28560, "pitch": 38, "duration": 240, "velocity": 80, "pitch_str": "D"}, {"time": 28800, "pitch": 36, "duration": 960, "velocity": 80, "pitch_str": "C"}, {"time": 29760, "pitch": 36, "duration": 480, "velocity": 80, "pitch_str": "C"}, {"time": 30240, "pitch": 36, "duration": 480, "velocity": 80, "pitch_str": "C"}, {"time": 32640, "pitch": 36, "duration": 480, "velocity": 80, "pitch_str": "C"}]}]}